<?xml version="1.0" encoding="iso-8859-1"?>
<!-- Generator: Adobe Illustrator 19.0.0, SVG Export Plug-In . SVG Version: 6.00 Build 0)  -->
<svg version="1.1" id="Capa_1" xmlns="http://www.w3.org/2000/svg" xmlns:xlink="http://www.w3.org/1999/xlink" x="0px" y="0px"
	 viewBox="0 0 511.999 511.999" style="enable-background:new 0 0 511.999 511.999;" xml:space="preserve">
<g>
	<polygon style="fill:#77767E;" points="391.39,115.337 384.846,119.14 384.846,465.672 401.642,475.37 408.186,471.566 
		408.186,125.034 	"/>
	<polygon style="fill:#77767E;" points="401.642,128.837 408.186,125.034 408.186,471.566 401.642,475.37 	"/>
</g>
<polygon style="fill:#ACABB1;" points="384.846,119.14 391.39,115.337 408.186,125.034 401.642,128.837 "/>
<polygon style="fill:#898890;" points="401.642,128.837 401.642,475.37 384.846,465.672 384.846,119.14 "/>
<g>
	<polygon style="fill:#77767E;" points="192.925,0 186.382,3.802 186.382,350.335 203.177,360.032 209.721,356.229 209.721,9.697 	
		"/>
	<polygon style="fill:#77767E;" points="203.177,13.5 209.721,9.697 209.721,356.229 203.177,360.032 	"/>
</g>
<polygon style="fill:#ACABB1;" points="186.382,3.802 192.925,0 209.721,9.697 203.177,13.5 "/>
<polygon style="fill:#898890;" points="203.177,13.5 203.177,360.032 186.382,350.335 186.382,3.802 "/>
<path style="fill:#ACABB1;" d="M338.955,173.84l-6.303-3.639l-0.057,20.203c-0.017,5.976-4.26,8.394-9.459,5.391l-171.77-99.17
	c-5.2-3.002-9.415-10.304-9.399-16.278l0.057-20.203l-6.303-3.639l-0.057,20.203c-0.028,9.967,7.006,22.152,15.681,27.16
	l171.769,99.171c8.674,5.008,15.755,0.973,15.783-8.994L338.955,173.84z"/>
<path style="fill:#643A00;" d="M401.463,128.836L186.245,3.766l-77.567,44.784c-2.698,1.558-4.874,5.327-4.865,8.427
	c0.004,1.517,0.538,2.616,1.424,3.132l215.217,125.07c-0.024-0.014-0.045-0.032-0.068-0.047c0.579,0.365,1.316,0.475,2.161,0.275
	l79.021-18.855L401.463,128.836z"/>
<polygon style="fill:#A66206;" points="323.896,173.62 108.678,48.549 186.245,3.766 401.463,128.836 "/>
<path style="fill:#884D01;" d="M320.454,185.178L105.237,60.107c-0.887-0.515-1.42-1.614-1.424-3.132
	c-0.008-3.1,2.168-6.869,4.865-8.427l215.218,125.07c-2.698,1.558-4.874,5.327-4.865,8.427
	C319.034,183.564,319.568,184.663,320.454,185.178z"/>
<path style="fill:#643A00;" d="M401.463,128.836l0.107,37.714l-79.021,18.855c-2.079,0.494-3.511-0.87-3.517-3.358
	c-0.008-3.1,2.168-6.869,4.865-8.427L401.463,128.836z"/>
<path style="fill:#ACABB1;" d="M338.955,327.246l-6.303-3.639l-0.057,20.203c-0.017,5.976-4.26,8.394-9.459,5.391l-171.77-99.17
	c-5.2-3.002-9.415-10.304-9.399-16.278l0.057-20.203l-6.303-3.638l-0.057,20.203c-0.028,9.967,7.006,22.152,15.681,27.16
	l171.769,99.171c8.674,5.008,15.755,0.973,15.783-8.994L338.955,327.246z"/>
<path style="fill:#643A00;" d="M401.463,282.242l-215.218-125.07l-77.567,44.784c-2.698,1.558-4.874,5.327-4.865,8.427
	c0.004,1.517,0.538,2.616,1.424,3.132l215.217,125.07c-0.024-0.014-0.045-0.032-0.068-0.047c0.579,0.365,1.316,0.475,2.161,0.275
	l79.021-18.855L401.463,282.242z"/>
<polygon style="fill:#A66206;" points="323.896,327.025 108.678,201.955 186.245,157.171 401.463,282.242 "/>
<path style="fill:#884D01;" d="M320.454,338.584L105.237,213.512c-0.887-0.515-1.42-1.614-1.424-3.132
	c-0.008-3.1,2.168-6.869,4.865-8.427l215.218,125.07c-2.698,1.558-4.874,5.327-4.865,8.427
	C319.034,336.97,319.568,338.069,320.454,338.584z"/>
<path style="fill:#643A00;" d="M401.463,282.242l0.107,37.714l-79.021,18.855c-2.079,0.494-3.511-0.87-3.517-3.358
	c-0.008-3.1,2.168-6.869,4.865-8.427L401.463,282.242z"/>
<path style="fill:#ACABB1;" d="M338.955,480.651l-6.303-3.639l-0.057,20.203c-0.017,5.976-4.26,8.394-9.459,5.391l-171.769-99.171
	c-5.2-3.002-9.415-10.304-9.399-16.278l0.057-20.203l-6.303-3.639l-0.057,20.203c-0.028,9.967,7.006,22.152,15.681,27.16
	l171.769,99.171c8.674,5.008,15.755,0.973,15.783-8.994L338.955,480.651z"/>
<path style="fill:#643A00;" d="M401.463,435.647l-215.218-125.07l-77.567,44.784c-2.698,1.558-4.874,5.327-4.865,8.427
	c0.004,1.517,0.538,2.616,1.424,3.132l215.217,125.07c-0.024-0.014-0.045-0.032-0.068-0.047c0.579,0.365,1.316,0.475,2.161,0.275
	l79.021-18.855L401.463,435.647z"/>
<polygon style="fill:#A66206;" points="323.896,480.431 108.678,355.361 186.245,310.577 401.463,435.647 "/>
<path style="fill:#884D01;" d="M320.454,491.989L105.237,366.918c-0.887-0.515-1.42-1.614-1.424-3.132
	c-0.008-3.1,2.168-6.869,4.865-8.427l215.218,125.07c-2.698,1.558-4.874,5.327-4.865,8.427
	C319.034,490.375,319.568,491.474,320.454,491.989z"/>
<path style="fill:#643A00;" d="M401.463,435.647l0.107,37.714l-79.021,18.855c-2.079,0.494-3.511-0.87-3.517-3.358
	c-0.008-3.1,2.168-6.869,4.865-8.427L401.463,435.647z"/>
<g>
</g>
<g>
</g>
<g>
</g>
<g>
</g>
<g>
</g>
<g>
</g>
<g>
</g>
<g>
</g>
<g>
</g>
<g>
</g>
<g>
</g>
<g>
</g>
<g>
</g>
<g>
</g>
<g>
</g>
</svg>
