<svg height="512" viewBox="0 0 64 64" width="512" xmlns="http://www.w3.org/2000/svg"><g id="Smartphone-Schedule-Clock-Calendar-Time_Management" data-name="Smartphone-Schedule-Clock-Calendar-Time Management"><rect fill="#5aaae7" height="58" rx="6" width="36" x="14" y="3"/><path d="m34 53a2.006 2.006 0 0 1 2 2 2.015 2.015 0 0 1 -2 2h-4a2.006 2.006 0 0 1 -2-2 2.015 2.015 0 0 1 2-2z" fill="#e6e7e8"/><path d="m50 31v20h-10a2.006 2.006 0 0 1 -2-2v-16a2.006 2.006 0 0 1 2-2z" fill="#3d9ae2"/><path d="m60 44v3a2.006 2.006 0 0 1 -2 2h-4v-5z" fill="#ffb655"/><path d="m48 44h6v5h-6z" fill="#ff9811"/><path d="m42 44v5h-4a2.006 2.006 0 0 1 -2-2v-3z" fill="#ff9811"/><path d="m54 39h6v5h-6z" fill="#ff9811"/><path d="m48 39h6v5h-6z" fill="#ffb655"/><path d="m54 34h6v5h-6z" fill="#ffb655"/><path d="m48 34h6v5h-6z" fill="#ff9811"/><path d="m42 34h6v5h-6z" fill="#ffb655"/><path d="m42 39h6v5h-6z" fill="#ff9811"/><path d="m42 44h6v5h-6z" fill="#ffb655"/><path d="m36 39h6v5h-6z" fill="#ffb655"/><path d="m36 34h6v5h-6z" fill="#ff9811"/><path d="m60 31v3h-24v-3a2.006 2.006 0 0 1 2-2h20a2.006 2.006 0 0 1 2 2z" fill="#ff5023"/><path d="m29 27a11.984 11.984 0 0 1 -12 12c-.34 0-.67-.01-1-.04a12.111 12.111 0 0 1 -2-.34v-23.24a12.111 12.111 0 0 1 2-.34c.33-.03.66-.04 1-.04a11.984 11.984 0 0 1 12 12z" fill="#3d9ae2"/><path d="m27 25a11.984 11.984 0 0 1 -12 12c-.34 0-.67-.01-1-.04a12 12 0 0 1 0-23.92c.33-.03.66-.04 1-.04a11.984 11.984 0 0 1 12 12z" fill="#ffa733"/><path d="m15 23a2 2 0 1 0 2 2 1.995 1.995 0 0 0 -2-2z" fill="#ff5023"/><path d="m23 6h2v2h-2z" fill="#3d9ae2"/><path d="m19 6h2v2h-2z" fill="#3d9ae2"/><path d="m27 6h10v2h-10z" fill="#3d9ae2"/><path d="m49 27h2v4h-2z" fill="#ed1c24"/><path d="m53 27h2v4h-2z" fill="#ed1c24"/><path d="m45 27h2v4h-2z" fill="#ed1c24"/><path d="m41 27h2v4h-2z" fill="#ed1c24"/><g fill="#ee8700"><path d="m14 13h2v3h-2z"/><path d="m20.925 16.576h3v2h-3z" transform="matrix(.707 -.707 .707 .707 -5.86 21.004)"/><path d="m24 24h3v2h-3z"/><path d="m21.425 30.925h2v3h-2z" transform="matrix(.707 -.707 .707 .707 -16.359 25.349)"/><path d="m14 34h2v3h-2z"/><path d="m6.075 31.425h3v2h-3z" transform="matrix(.707 -.707 .707 .707 -20.709 14.853)"/><path d="m3 24h3v2h-3z"/><path d="m6.575 16.075h2v3h-2z" transform="matrix(.707 -.707 .707 .707 -10.208 10.502)"/></g><path d="m14 18h2v5h-2z" fill="#ed1c24"/><path d="m17 24h4v2h-4z" fill="#ed1c24"/><path d="m31 14h14v2h-14z" fill="#1e81ce"/><path d="m31 18h14v2h-14z" fill="#1e81ce"/><path d="m31 22h14v2h-14z" fill="#1e81ce"/><path d="m19 40h10v2h-10z" fill="#1e81ce"/><path d="m19 44h10v2h-10z" fill="#1e81ce"/><path d="m19 48h10v2h-10z" fill="#1e81ce"/><path d="m15 28a3 3 0 1 1 3-3 3 3 0 0 1 -3 3zm0-4a1 1 0 1 0 1 1 1 1 0 0 0 -1-1z" fill="#ed1c24"/><path d="m15 38a13 13 0 1 1 13-13 13.015 13.015 0 0 1 -13 13zm0-24a11 11 0 1 0 11 11 11.013 11.013 0 0 0 -11-11z" fill="#ee8700"/></g></svg>