<svg height="512" viewBox="0 0 64 64" width="512" xmlns="http://www.w3.org/2000/svg"><g id="Flat"><g id="Flat_copy" data-name="Flat copy"><g><path d="m44 18.826v-9.826h-24v9.826a7.193 7.193 0 0 0 3.624 6.245l1.2.685a7.194 7.194 0 0 1 3.11 3.573 7.2 7.2 0 0 1 0 5.342 7.194 7.194 0 0 1 -3.11 3.573l-1.2.685a7.193 7.193 0 0 0 -3.624 6.245v9.826h24v-9.826a7.193 7.193 0 0 0 -3.624-6.245l-1.2-.685a7.194 7.194 0 0 1 -3.11-3.573 7.2 7.2 0 0 1 0-5.342 7.194 7.194 0 0 1 3.11-3.573l1.2-.685a7.193 7.193 0 0 0 3.624-6.245z" fill="#aae1f9"/><path d="m34 51a9.979 9.979 0 0 1 -7.721-3.645 5.644 5.644 0 0 1 -1.117-4.581v-.018a5.847 5.847 0 0 1 2.86-4.056l.8-.458a7.191 7.191 0 0 0 3.11-8.915 7.2 7.2 0 0 0 -3.11-3.574l-1.2-.684a7.193 7.193 0 0 1 -3.622-6.243v-.826a6 6 0 0 1 6-6h14v-3h-24v9.826a7.193 7.193 0 0 0 3.624 6.245l1.2.684a7.2 7.2 0 0 1 3.11 3.574 7.191 7.191 0 0 1 -3.11 8.915l-1.2.685a7.193 7.193 0 0 0 -3.624 6.245v9.826h24v-4z" fill="#57b7eb"/><path d="m12 9h4v46h-4z" fill="#fcbc04"/><path d="m16 12v-3h-4v46h4v-2a2 2 0 0 1 -2-2v-10a2 2 0 0 1 2-2v-13a2 2 0 0 1 -2-2v-10a2 2 0 0 1 2-2z" fill="#e59730"/><path d="m48 9h4v46h-4z" fill="#fcbc04"/><path d="m52 12v-3h-4v46h4v-2a2 2 0 0 1 -2-2v-10a2 2 0 0 1 2-2v-13a2 2 0 0 1 -2-2v-10a2 2 0 0 1 2-2z" fill="#e59730"/><path d="m8 3h48a0 0 0 0 1 0 0v2a4 4 0 0 1 -4 4h-40a4 4 0 0 1 -4-4v-2a0 0 0 0 1 0 0z" fill="#f9e109"/><path d="m8 55h48a0 0 0 0 1 0 0v2a4 4 0 0 1 -4 4h-40a4 4 0 0 1 -4-4v-2a0 0 0 0 1 0 0z" fill="#f9e109" transform="matrix(-1 0 0 -1 64 116)"/><g><path d="m24 51.174a3.2 3.2 0 0 1 1.608-2.774l1.2-.684a11.252 11.252 0 0 0 4.839-5.56q.2-.508.354-1.028.151.519.354 1.026a11.245 11.245 0 0 0 4.838 5.561l1.2.685a3.2 3.2 0 0 1 1.607 2.774zm8-22.3a11.252 11.252 0 0 0 -1.56-3.26 11.868 11.868 0 0 0 -3.927-3.5l-.9-.516a3.192 3.192 0 0 1 -1.613-2.772v-5.826a15.1 15.1 0 0 0 16 0v5.826a3.193 3.193 0 0 1 -1.609 2.774l-.885.505a11.716 11.716 0 0 0 -5.2 5.857q-.171.448-.306.908z" fill="#c4f236"/><path d="m24 51.174h16c0-.059-.008-.116-.012-.174h-5.988a9.958 9.958 0 0 1 -7.321-3.209l-1.071.611a3.2 3.2 0 0 0 -1.608 2.772z" fill="#a1d51c"/><path d="m24 18a5.973 5.973 0 0 1 1.643-4.117 15.059 15.059 0 0 1 -1.643-.883z" fill="#a1d51c"/><path d="m31 24h2v22h-2z" fill="#c4f236"/><g fill="#a1d51c"><circle cx="32" cy="22" r="1"/><circle cx="35" cy="19" r="1"/><circle cx="27" cy="18" r="1"/><circle cx="30" cy="19" r="1"/><circle cx="32" cy="48" r="1"/><path d="m31.932 34.671a7.2 7.2 0 0 0 0-5.342 7.187 7.187 0 0 0 -.932-1.613v8.568a7.187 7.187 0 0 0 .932-1.613z"/><circle cx="36" cy="49" r="1"/><circle cx="28" cy="49" r="1"/></g><path d="m28 50a.983.983 0 0 0 .823-.465 10.2 10.2 0 0 1 -1.57-1.183.985.985 0 0 0 -.253.648 1 1 0 0 0 1 1z" fill="#7ab92d"/></g><circle cx="50" cy="32" fill="#f9e109" r="4"/><circle cx="14" cy="32" fill="#f9e109" r="4"/><g fill="#fcbc04"><path d="m52 34a3.985 3.985 0 0 1 -3.64-5.64 3.995 3.995 0 1 0 5.28 5.28 3.961 3.961 0 0 1 -1.64.36z"/><path d="m16 34a3.985 3.985 0 0 1 -3.64-5.64 3.995 3.995 0 1 0 5.28 5.28 3.961 3.961 0 0 1 -1.64.36z"/><path d="m14 6a3.992 3.992 0 0 1 -3.859-3h-2.141v2a4 4 0 0 0 4 4h40a3.992 3.992 0 0 0 3.859-3z"/><path d="m16 58a3.992 3.992 0 0 1 -3.859-3h-.141a4 4 0 0 0 -4 4v2h48v-2a3.977 3.977 0 0 0 -.141-1z"/></g><circle cx="50" cy="32" fill="#e59730" r="1"/><circle cx="14" cy="32" fill="#e59730" r="1"/></g></g></g></svg>