<svg id="flat" height="512" viewBox="0 0 512 512" width="512" xmlns="http://www.w3.org/2000/svg"><path d="m24 136h464v80h-464z" fill="#8098ab"/><path d="m24 216h464v80h-464z" fill="#718799"/><path d="m24 296h464v80h-464z" fill="#8098ab"/><path d="m104 376h32v64h-32z" fill="#62798c"/><path d="m136 440 40 24v24h-112v-24l40-24z" fill="#8098ab"/><path d="m376 376h32v64h-32z" fill="#62798c"/><path d="m408 440 40 24v24h-112v-24l40-24z" fill="#8098ab"/><circle cx="400" cy="64" fill="#ef5e3b" r="40"/><path d="m352 136 16-32h64l16 32z" fill="#62798c"/><path d="m168 136-64.56 80h-79.44l64-80z" fill="#ffc431"/><path d="m328 136-64 80h-80l64-80z" fill="#ffc431"/><path d="m488 136-64 80h-80l64-80z" fill="#ffc431"/><g fill="#ffb401"><path d="m488 236v60h-48z"/><path d="m103.44 216-64.55 80h-14.89v-80z"/><path d="m264 216-64 80h-80l64-80z"/><path d="m424 216-64 80h-80l64-80z"/></g><path d="m488 296v40l-32 40h-80l64-80z" fill="#ffc431"/><path d="m38.89 296-14.89 18.45v-18.45z" fill="#ffa100"/><path d="m200 296-64 80h-80l64-80z" fill="#ffc431"/><path d="m360 296-64 80h-80l64-80z" fill="#ffc431"/><circle cx="112" cy="64" fill="#ef5e3b" r="40"/><path d="m64 136 16-32h64l16 32z" fill="#62798c"/></svg>