<svg height="472pt" viewBox="-3 0 471 472" width="472pt" xmlns="http://www.w3.org/2000/svg"><path d="m272.5 296h-80v-48l-40-64v-16l56 48h48l56-48v24l-40 56zm0 0" fill="#e3ddd5"/><path d="m192.5 296-16 128h16l40-80 40 80h16l-16-128zm0 0" fill="#29485a"/><path d="m256.5 192c0 13.253906-10.746094 24-24 24s-24-10.746094-24-24 10.746094-24 24-24 24 10.746094 24 24zm0 0" fill="#ffb398"/><path d="m224.5 216-8 48 16 15.992188 16-15.992188-8-48zm0 0" fill="#e20736"/><path d="m424.5 376h-80v-48l-24 40-16-8 32-64h96l32 64-16 8-24-40zm0 0" fill="#e3ddd5"/><path d="m344.5 376v96h16l24-64 24 64h16v-96zm0 0" fill="#29485a"/><path d="m408.5 272c0 13.253906-10.746094 24-24 24s-24-10.746094-24-24 10.746094-24 24-24 24 10.746094 24 24zm0 0" fill="#ffb398"/><path d="m376.5 296-8 48 16 16 16-16-8-48zm0 0" fill="#29485a"/><path d="m120.5 376h-80v-48l-24 40-16-8 32-64h96l32 64-16 8-24-40zm0 0" fill="#e3ddd5"/><path d="m40.5 376v96h16l24-64 24 64h16v-96zm0 0" fill="#29485a"/><path d="m104.5 272c0 13.253906-10.746094 24-24 24s-24-10.746094-24-24 10.746094-24 24-24 24 10.746094 24 24zm0 0" fill="#ffb398"/><path d="m72.5 296-8 48 16 16 16-16-8-48zm0 0" fill="#29485a"/><g fill="#ffd422"><path d="m224.5 0h16v32h-16zm0 0"/><path d="m256.5 56c0 6.160156-2.320312 11.757812-6.160156 16-.160156.160156-.238282.320312-.398438.480469-4.402344 4.640625-10.5625 7.519531-17.441406 7.519531s-13.039062-2.878906-17.441406-7.519531c-.160156-.160157-.238282-.320313-.398438-.480469-3.839844-4.242188-6.160156-9.839844-6.160156-16 0-5.441406 1.839844-10.398438 4.878906-14.398438 4.320313-5.84375 11.28125-9.601562 19.121094-9.601562s14.800781 3.757812 19.121094 9.601562c3.039062 4 4.878906 8.957032 4.878906 14.398438zm0 0"/><path d="m376.5 96-32 80v-64l-88.878906-37.601562-5.679688-1.917969c.160156-.160157.238282-.320313.398438-.480469 3.839844-4.242188 6.160156-9.839844 6.160156-16 0-5.441406-1.839844-10.398438-4.878906-14.398438zm0 0"/><path d="m88.5 96 32 80v-64l88.878906-37.601562 5.679688-1.917969c-.160156-.160157-.238282-.320313-.398438-.480469-3.839844-4.242188-6.160156-9.839844-6.160156-16 0-5.441406 1.839844-10.398438 4.878906-14.398438zm0 0"/></g><path d="m255.621094 74.398438-23.121094 61.601562-23.121094-61.601562 5.679688-1.917969c4.402344 4.640625 10.5625 7.519531 17.441406 7.519531s13.039062-2.878906 17.441406-7.519531zm0 0" fill="#e7b900"/></svg>